# xmcd
#
# Track frame offsets: 
#        150
#        10075
#        41436
#        46403
#        65324
#        73167
#        88493
#        91827
#        97666
#        117742
#        123820
#        136207
#        162324
#        188480
#        206205
#        226617
#        242877
#        272779
#        274047
#        278410
#        320798
#        324890
#        331553
#        350938
#
# Disc length: 4693 seconds
#
# Revision: 0
# Processed by: cddbd v1.5.2PL0 Copyright (c) Steve Scherf et al.
# Submitted via: ExactAudioCopy v0.95b4
#
DISCID=54125318
DTITLE=The Beatles  - AB  Road - Complete Purple Chick Set v1.1 Jan.27
DTITLE=Various Artist - D5  FLAC
DYEAR=1900
DGENRE=
TTITLE0=You Are My Sunshine 27.55
TTITLE1=Oh! Darling 27.56
TTITLE2=Get Back 27.57
TTITLE3=Get Back 27.58
TTITLE4=Get Back 27.59
TTITLE5=Get Back 27.60
TTITLE6=Bring It On Home-Oh Darling 27.61
TTITLE7=Oh! Darling 27.62
TTITLE8=Get Back 27.63
TTITLE9=Get Back 27.64
TTITLE10=Get Back 27.65
TTITLE11=Get Back 27.66
TTITLE12=Get Back 27.53P
TTITLE13=Get Back 27.66P
TTITLE14=Get Back 27.63P
TTITLE15=Get Back 23.79P
TTITLE16=Get Back 27.67
TTITLE17=Roll announcement
TTITLE18=Get Back
TTITLE19=Get Back 27.68
TTITLE20=Get Back 27.69
TTITLE21=Get Back 27.70
TTITLE22=Get Back 27.71
TTITLE23=Get Back 27.72
EXTD=
EXTT0=
EXTT1=
EXTT2=
EXTT3=
EXTT4=
EXTT5=
EXTT6=
EXTT7=
EXTT8=
EXTT9=
EXTT10=
EXTT11=
EXTT12=
EXTT13=
EXTT14=
EXTT15=
EXTT16=
EXTT17=
EXTT18=
EXTT19=
EXTT20=
EXTT21=
EXTT22=
EXTT23=
PLAYORDER=
